<svg width="139" height="57" viewBox="0 0 139 57" fill="none" xmlns="http://www.w3.org/2000/svg">
<rect x="1" y="1" width="137" height="55" rx="20" fill="#859494"/>
<rect x="1" y="1" width="137" height="55" rx="20" stroke="url(#paint0_linear_41_15)" stroke-width="2"/>
<rect x="1" y="1" width="137" height="55" rx="20" stroke="url(#paint1_linear_41_15)" stroke-width="2"/>
<path d="M31.3791 41.5007H16.8791C13.5069 39.954 13.754 38.701 14.3792 35.5007H18.3791M31.3791 41.5007C28.4906 39.7471 28.3985 38.4112 28.8792 35.5007H18.3791M31.3791 41.5007C33.1538 41.9212 34.1818 41.462 35.3791 39.0007V21.0007M35.3791 16.0007H19.8791C18.8275 16.2775 18.456 16.668 18.3791 18.0007V35.5007M35.3791 16.0007V21.0007M35.3791 16.0007C38.6391 15.9802 39.7757 16.3862 40.3791 18.0007C40.7076 19.3663 40.8883 21.1117 39.5 22.0007C38.1117 22.8898 36.6846 23.8005 35.3791 21.0007M20.8791 21.0007H26.8791M20.8791 24.5007H31.3791M20.8791 28.0007H31.3791M20.8791 29.5007H31.3791M20.8791 31.5007H31.3791M20.8791 33.0007H31.3791" stroke="white" stroke-linejoin="round"/>
<path d="M53.56 38.96C53.0533 38.96 52.5267 38.8467 51.98 38.62C51.4467 38.4067 51.0667 38.06 50.84 37.58C50.7467 37.4067 50.6867 37.22 50.66 37.02C50.6467 36.8333 50.64 36.6467 50.64 36.46V36.24C50.64 36.1333 50.6533 36.0333 50.68 35.94C50.7067 35.86 50.7733 35.82 50.88 35.82C50.9067 35.82 50.92 35.8333 50.92 35.86C50.92 35.94 50.9133 36.02 50.9 36.1C50.8867 36.18 50.88 36.2667 50.88 36.36C50.88 36.9733 51.0733 37.44 51.46 37.76C51.86 38.08 52.3533 38.24 52.94 38.24C53.78 38.24 54.5533 38.0333 55.26 37.62C55.9667 37.2067 56.6067 36.64 57.18 35.92C57.74 35.2267 58.1933 34.5467 58.54 33.88C58.9 33.2267 59.2133 32.56 59.48 31.88C59.7467 31.2 60.02 30.5 60.3 29.78C59.9533 30.3 59.4733 30.78 58.86 31.22C58.2467 31.6467 57.58 31.9867 56.86 32.24C56.1533 32.5067 55.4667 32.64 54.8 32.64C54.0933 32.64 53.4267 32.5133 52.8 32.26C52.1867 32.02 51.6933 31.6533 51.32 31.16C50.9467 30.6667 50.76 30.0467 50.76 29.3C50.76 28.4333 50.9267 27.5867 51.26 26.76C51.5933 25.9333 52.04 25.1667 52.6 24.46C53.16 23.74 53.7867 23.12 54.48 22.6C55.0933 22.1333 55.8 21.7533 56.6 21.46C57.4133 21.1667 58.22 21.02 59.02 21.02C59.3533 21.02 59.6667 21.0467 59.96 21.1C60.2533 21.14 60.5533 21.2333 60.86 21.38C61.1267 21.5 61.34 21.6533 61.5 21.84C61.66 22.0133 61.74 22.2133 61.74 22.44C61.74 22.4667 61.74 22.5 61.74 22.54C61.74 22.58 61.7333 22.6133 61.72 22.64C61.6667 22.8533 61.54 23.1 61.34 23.38C61.1533 23.6467 61.0067 23.9267 60.9 24.22C60.8867 24.2733 60.8133 24.32 60.68 24.36C60.5467 24.3867 60.4933 24.3733 60.52 24.32C60.6267 24.1467 60.7067 23.9333 60.76 23.68C60.8267 23.4267 60.86 23.1733 60.86 22.92C60.86 22.7333 60.84 22.56 60.8 22.4C60.7733 22.2267 60.72 22.08 60.64 21.96C60.5067 21.72 60.3 21.5533 60.02 21.46C59.74 21.3667 59.44 21.32 59.12 21.32C58.8133 21.32 58.5067 21.3533 58.2 21.42C57.8933 21.4867 57.6267 21.56 57.4 21.64C56.6267 21.92 55.8867 22.36 55.18 22.96C54.5533 23.5067 53.9933 24.14 53.5 24.86C53.02 25.58 52.64 26.32 52.36 27.08C52.08 27.84 51.94 28.5667 51.94 29.26C51.94 29.9667 52.0733 30.54 52.34 30.98C52.62 31.42 52.9867 31.7467 53.44 31.96C53.8933 32.16 54.38 32.26 54.9 32.26C55.98 32.26 56.9267 32.0133 57.74 31.52C58.5667 31.0133 59.2667 30.3533 59.84 29.54C60.4133 28.7267 60.8533 27.8533 61.16 26.92H59.1C58.94 26.92 58.72 26.9333 58.44 26.96C58.16 26.9733 57.8733 27.02 57.58 27.1C57.2867 27.1667 57.04 27.28 56.84 27.44C56.64 27.6 56.54 27.82 56.54 28.1C56.54 28.1933 56.5533 28.2933 56.58 28.4C56.6067 28.4933 56.6267 28.5667 56.64 28.62L56.46 28.74C56.3667 28.5667 56.2533 28.3867 56.12 28.2C56 28 55.9333 27.84 55.92 27.72C55.9067 27.6133 55.9133 27.4733 55.94 27.3C55.9667 27.1267 56.0533 26.9733 56.2 26.84C56.36 26.6933 56.5867 26.6 56.88 26.56C57.1867 26.5067 57.5 26.48 57.82 26.48C58.1133 26.48 58.3933 26.4933 58.66 26.52C58.9267 26.5333 59.14 26.54 59.3 26.54H63.1L62.88 26.78C62.6933 26.78 62.4867 26.8133 62.26 26.88C62.0333 26.9333 61.8467 27.0533 61.7 27.24C61.4067 27.6133 61.18 28.0333 61.02 28.5C60.8733 28.9667 60.72 29.46 60.56 29.98C60.2933 30.9267 60.0333 31.8533 59.78 32.76C59.5267 33.68 59.1867 34.5467 58.76 35.36C58.3467 36.1867 57.74 36.9467 56.94 37.64C56.5133 38 55.98 38.3067 55.34 38.56C54.7 38.8267 54.1067 38.96 53.56 38.96ZM64.9234 32.06C64.7901 32.06 64.6768 32.0333 64.5834 31.98C64.4901 31.9267 64.4434 31.8267 64.4434 31.68C64.4434 31.4933 64.4901 31.28 64.5834 31.04C64.6768 30.8 64.7834 30.5667 64.9034 30.34C65.0234 30.1 65.1301 29.9067 65.2234 29.76C64.7568 30.2533 64.2701 30.72 63.7634 31.16C63.5101 31.3733 63.2301 31.5733 62.9234 31.76C62.6168 31.9467 62.2901 32.04 61.9434 32.04C61.8101 32.04 61.7168 32 61.6634 31.92C61.6101 31.8267 61.5834 31.72 61.5834 31.6C61.5834 31.5333 61.5901 31.4867 61.6034 31.46C61.6701 30.94 61.8368 30.4 62.1034 29.84C62.3701 29.28 62.6968 28.7533 63.0834 28.26C63.4701 27.7667 63.8634 27.3667 64.2634 27.06C64.7168 26.7133 65.2168 26.54 65.7634 26.54H68.0634C68.1301 26.54 68.1634 26.5667 68.1634 26.62C68.1634 26.7267 68.1034 26.78 67.9834 26.78C67.8501 26.78 67.7168 26.8667 67.5834 27.04C67.4501 27.2 67.3501 27.3333 67.2834 27.44C67.1901 27.5867 67.0434 27.8333 66.8434 28.18C66.6434 28.5267 66.4368 28.9067 66.2234 29.32C66.0234 29.72 65.8501 30.0933 65.7034 30.44C65.5568 30.7867 65.4834 31.04 65.4834 31.2C65.4834 31.3867 65.5768 31.48 65.7634 31.48C65.9634 31.48 66.1901 31.3867 66.4434 31.2C66.6968 31.0133 66.9501 30.7867 67.2034 30.52C67.4701 30.24 67.7101 29.9667 67.9234 29.7C68.1501 29.42 68.3301 29.2 68.4634 29.04C68.5434 29.12 68.5368 29.2333 68.4434 29.38C68.3634 29.5133 68.2901 29.62 68.2234 29.7C67.9568 30.0467 67.6501 30.4067 67.3034 30.78C66.9568 31.14 66.5768 31.4467 66.1634 31.7C65.7634 31.94 65.3501 32.06 64.9234 32.06ZM62.7634 31.36C62.9234 31.36 63.1434 31.2467 63.4234 31.02C63.7168 30.78 64.0301 30.4867 64.3634 30.14C64.6968 29.78 65.0101 29.4067 65.3034 29.02C65.5968 28.62 65.8368 28.26 66.0234 27.94C66.2234 27.6067 66.3234 27.3533 66.3234 27.18C66.3234 27.0333 66.2768 26.9333 66.1834 26.88C66.1034 26.8267 65.9968 26.8 65.8634 26.8C65.6501 26.8 65.4168 26.88 65.1634 27.04C64.9234 27.1867 64.7301 27.3333 64.5834 27.48C64.4234 27.6267 64.2301 27.86 64.0034 28.18C63.7901 28.4867 63.5768 28.8267 63.3634 29.2C63.1501 29.5733 62.9701 29.9333 62.8234 30.28C62.6768 30.6267 62.6034 30.9067 62.6034 31.12C62.6034 31.28 62.6568 31.36 62.7634 31.36ZM68.2023 32.3C68.149 32.3 68.149 32.24 68.2023 32.12C68.269 32 68.329 31.8667 68.3823 31.72C68.449 31.5733 68.5157 31.4133 68.5823 31.24C68.7157 30.92 68.8623 30.56 69.0223 30.16C69.1823 29.76 69.3357 29.3733 69.4823 29C69.629 28.6133 69.7557 28.2867 69.8623 28.02C69.9823 27.74 70.0623 27.56 70.1023 27.48C69.9157 27.68 69.689 27.9333 69.4223 28.24C69.169 28.5333 68.929 28.82 68.7023 29.1C68.4757 29.38 68.3023 29.6 68.1823 29.76C68.1423 29.8133 68.109 29.84 68.0823 29.84C68.0557 29.84 68.0423 29.8067 68.0423 29.74C68.0423 29.6333 68.0757 29.5333 68.1423 29.44C68.3957 29.12 68.6757 28.76 68.9823 28.36C69.3023 27.96 69.589 27.5933 69.8423 27.26C70.0957 26.9133 70.2557 26.6867 70.3223 26.58C70.469 26.5533 70.6823 26.5133 70.9623 26.46C71.2557 26.4067 71.4557 26.3333 71.5623 26.24C71.6023 26.2 71.6423 26.18 71.6823 26.18C71.709 26.18 71.7223 26.2067 71.7223 26.26C71.7357 26.3 71.7223 26.3467 71.6823 26.4C71.6023 26.4933 71.4623 26.7133 71.2623 27.06C71.0757 27.3933 70.869 27.7667 70.6423 28.18C70.429 28.5933 70.229 28.9667 70.0423 29.3C70.2557 29.0467 70.4623 28.8067 70.6623 28.58C70.8757 28.3533 71.0223 28.1933 71.1023 28.1C71.2623 27.94 71.4823 27.74 71.7623 27.5C72.0423 27.26 72.3357 27.04 72.6423 26.84C72.949 26.64 73.2157 26.5267 73.4423 26.5C73.4957 26.4867 73.5423 26.48 73.5823 26.48C73.6223 26.48 73.6623 26.48 73.7023 26.48C73.9557 26.48 74.0823 26.5733 74.0823 26.76C74.0823 26.84 74.0623 26.9333 74.0223 27.04C73.9823 27.1467 73.929 27.2533 73.8623 27.36C73.7823 27.52 73.649 27.7733 73.4623 28.12C73.2757 28.4533 73.109 28.76 72.9623 29.04L73.9023 28.1C74.0623 27.94 74.2823 27.74 74.5623 27.5C74.8423 27.26 75.1357 27.04 75.4423 26.84C75.749 26.64 76.0157 26.5267 76.2423 26.5C76.2957 26.4867 76.3423 26.48 76.3823 26.48C76.4357 26.48 76.4757 26.48 76.5023 26.48C76.7957 26.48 76.9423 26.5867 76.9423 26.8C76.9423 26.96 76.8557 27.1733 76.6823 27.44C76.589 27.5867 76.4423 27.8333 76.2423 28.18C76.0423 28.5267 75.8357 28.9067 75.6223 29.32C75.4223 29.72 75.249 30.0933 75.1023 30.44C74.9557 30.7867 74.8823 31.04 74.8823 31.2C74.8823 31.3867 74.9757 31.48 75.1623 31.48C75.3357 31.48 75.5557 31.38 75.8223 31.18C76.1023 30.9667 76.3823 30.7133 76.6623 30.42C76.9557 30.1267 77.209 29.8467 77.4223 29.58C77.5157 29.4733 77.6023 29.3667 77.6823 29.26C77.7757 29.14 77.829 29.0733 77.8423 29.06C77.869 29.0867 77.8823 29.1333 77.8823 29.2C77.8823 29.2933 77.849 29.3867 77.7823 29.48C77.729 29.56 77.6757 29.6333 77.6223 29.7C77.369 30.0333 77.0757 30.38 76.7423 30.74C76.4223 31.1 76.069 31.4067 75.6823 31.66C75.2957 31.9 74.8823 32.04 74.4423 32.08C74.309 32.0933 74.1757 32.0667 74.0423 32C73.909 31.9333 73.8423 31.8267 73.8423 31.68C73.8423 31.4933 73.889 31.2733 73.9823 31.02C74.089 30.7667 74.2023 30.5133 74.3223 30.26C74.4557 30.0067 74.5557 29.8 74.6223 29.64C74.8623 29.1733 75.0823 28.7333 75.2823 28.32C75.4823 27.9067 75.6223 27.6133 75.7023 27.44C75.7423 27.36 75.7623 27.2933 75.7623 27.24C75.7623 27.1467 75.689 27.14 75.5423 27.22C75.3957 27.3 75.2157 27.42 75.0023 27.58C74.8023 27.74 74.6157 27.9 74.4423 28.06C74.269 28.2067 74.1557 28.3067 74.1023 28.36C73.8757 28.5867 73.6023 28.8933 73.2823 29.28C72.9757 29.6667 72.689 30.0733 72.4223 30.5C72.1557 30.9133 71.969 31.3 71.8623 31.66C71.729 31.78 71.6023 31.84 71.4823 31.84C71.389 31.84 71.309 31.8067 71.2423 31.74C71.189 31.6733 71.1623 31.5933 71.1623 31.5C71.1623 31.2333 71.2423 30.92 71.4023 30.56C71.5757 30.1867 71.7157 29.88 71.8223 29.64C72.0623 29.1733 72.2823 28.7333 72.4823 28.32C72.6823 27.9067 72.8223 27.6133 72.9023 27.44C72.9423 27.36 72.9623 27.2933 72.9623 27.24C72.9623 27.1467 72.889 27.14 72.7423 27.22C72.5957 27.3 72.4157 27.42 72.2023 27.58C72.0023 27.74 71.8157 27.9 71.6423 28.06C71.469 28.2067 71.3557 28.3067 71.3023 28.36C70.9823 28.6933 70.6823 29.0333 70.4023 29.38C70.1357 29.7267 69.909 30.1 69.7223 30.5C69.6157 30.74 69.5023 31.0067 69.3823 31.3C69.2623 31.5933 69.1623 31.84 69.0823 32.04C68.909 32.0533 68.7357 32.1 68.5623 32.18C68.389 32.26 68.269 32.3 68.2023 32.3ZM78.6169 32.16C78.0702 32.16 77.6902 32.0533 77.4769 31.84C77.2635 31.6267 77.1569 31.3667 77.1569 31.06C77.1569 30.6733 77.2569 30.26 77.4569 29.82C77.6702 29.38 77.8702 29.0067 78.0569 28.7C78.2702 28.38 78.5569 28.0467 78.9169 27.7C79.2769 27.3533 79.6702 27.06 80.0969 26.82C80.5235 26.58 80.9369 26.46 81.3369 26.46C81.6835 26.46 81.9235 26.5467 82.0569 26.72C82.1902 26.88 82.2569 27.0733 82.2569 27.3C82.2569 27.7133 82.1302 28.0533 81.8769 28.32C81.6369 28.5867 81.3369 28.8067 80.9769 28.98C80.6169 29.14 80.2702 29.2733 79.9369 29.38C79.7369 29.4333 79.5035 29.4867 79.2369 29.54C78.9702 29.5933 78.7169 29.62 78.4769 29.62C78.3835 29.86 78.3102 30.0933 78.2569 30.32C78.2035 30.5467 78.1769 30.7533 78.1769 30.94C78.1769 31.1667 78.2302 31.3533 78.3369 31.5C78.4569 31.6467 78.6502 31.72 78.9169 31.72C79.0235 31.72 79.1502 31.7067 79.2969 31.68C79.4435 31.6533 79.6035 31.6133 79.7769 31.56C80.1769 31.4267 80.5702 31.2133 80.9569 30.92C81.3435 30.6267 81.6969 30.3133 82.0169 29.98C82.3502 29.6333 82.6035 29.3467 82.7769 29.12C82.8169 29.16 82.8369 29.2067 82.8369 29.26C82.8369 29.3267 82.7902 29.4333 82.6969 29.58C82.4302 29.9533 82.0835 30.34 81.6569 30.74C81.2302 31.14 80.7569 31.48 80.2369 31.76C79.7169 32.0267 79.1769 32.16 78.6169 32.16ZM78.6369 29.22C78.8102 29.2333 79.0035 29.2333 79.2169 29.22C79.4435 29.1933 79.6635 29.1467 79.8769 29.08C80.4235 28.92 80.8169 28.6667 81.0569 28.32C81.3102 27.96 81.4369 27.64 81.4369 27.36C81.4369 27.2 81.4035 27.0667 81.3369 26.96C81.2702 26.8533 81.1635 26.8 81.0169 26.8C80.6302 26.8 80.2835 26.9467 79.9769 27.24C79.6702 27.52 79.4035 27.8467 79.1769 28.22C78.9502 28.5933 78.7702 28.9267 78.6369 29.22ZM94.5963 32.46C94.2629 32.46 93.9229 32.3533 93.5763 32.14C93.2429 31.94 92.9029 31.6133 92.5563 31.16C92.1296 30.5733 91.7696 30.0133 91.4763 29.48C91.1829 28.9467 90.9429 28.48 90.7563 28.08C90.5829 27.68 90.4496 27.3933 90.3563 27.22C90.3563 27.22 90.3896 27.18 90.4563 27.1C90.5229 27.0067 90.6029 26.92 90.6963 26.84C90.8029 26.7467 90.8896 26.7 90.9563 26.7C91.5829 26.7 92.1429 26.6933 92.6363 26.68C93.1429 26.6533 93.5896 26.5733 93.9763 26.44C94.3763 26.2933 94.7296 26.0467 95.0363 25.7C95.3429 25.3533 95.6029 24.86 95.8163 24.22C95.8829 24.06 95.9229 23.9 95.9363 23.74C95.9629 23.5667 95.9763 23.4 95.9763 23.24C95.9763 22.7867 95.8629 22.3867 95.6363 22.04C95.4096 21.6933 95.0829 21.4933 94.6563 21.44C94.6029 21.4267 94.5429 21.42 94.4763 21.42C94.4096 21.42 94.3429 21.42 94.2763 21.42C94.0229 21.42 93.7429 21.4533 93.4363 21.52C93.1429 21.5867 92.9229 21.7133 92.7763 21.9C92.4429 22.34 92.1229 22.84 91.8163 23.4C91.5096 23.9467 91.2163 24.5067 90.9363 25.08C90.6563 25.64 90.3896 26.1667 90.1363 26.66C90.0696 26.7933 89.9429 27.0333 89.7563 27.38C89.5696 27.7133 89.3629 28.1 89.1363 28.54C88.9096 28.9667 88.6963 29.3933 88.4963 29.82C88.2963 30.2467 88.1363 30.6267 88.0163 30.96C87.9096 31.2933 87.8829 31.52 87.9363 31.64C87.9496 31.6533 87.9563 31.6733 87.9563 31.7C87.9563 31.74 87.9363 31.76 87.8963 31.76C87.7896 31.76 87.6829 31.7333 87.5763 31.68C87.4696 31.6267 87.3429 31.6 87.1963 31.6C87.0629 31.6 86.9296 31.6333 86.7963 31.7C86.6629 31.7533 86.4896 31.8533 86.2763 32C86.0629 32.1467 85.8229 32.2667 85.5563 32.36C85.5296 32.3733 85.4896 32.38 85.4363 32.38C85.3429 32.38 85.2696 32.3533 85.2163 32.3C85.1629 32.26 85.1629 32.2267 85.2163 32.2C85.5096 32.1467 85.7629 32.04 85.9763 31.88C86.1896 31.7067 86.3629 31.4933 86.4963 31.24C86.7763 30.7733 87.0496 30.3067 87.3163 29.84C87.5963 29.36 87.8629 28.88 88.1163 28.4C88.4229 27.8133 88.7363 27.2267 89.0563 26.64C89.3763 26.04 89.6963 25.4467 90.0163 24.86C90.3229 24.3133 90.5963 23.7867 90.8363 23.28C91.0763 22.7733 91.2563 22.4067 91.3763 22.18C91.4696 22.0067 91.6296 21.8533 91.8563 21.72C92.0963 21.5733 92.3296 21.46 92.5563 21.38C92.4763 21.38 92.3963 21.38 92.3163 21.38C92.2363 21.3667 92.1496 21.36 92.0563 21.36C91.6429 21.36 91.1896 21.3867 90.6963 21.44C90.2163 21.48 89.7429 21.5467 89.2763 21.64C88.8229 21.7333 88.4229 21.86 88.0763 22.02C87.7296 22.18 87.4963 22.3733 87.3763 22.6C87.3229 22.72 87.2763 22.84 87.2363 22.96C87.1963 23.08 87.1763 23.2 87.1763 23.32C87.1763 23.6267 87.2829 23.8467 87.4963 23.98C87.5096 23.98 87.5163 23.9933 87.5163 24.02C87.5163 24.0467 87.4896 24.0733 87.4363 24.1C87.3963 24.1267 87.3629 24.1333 87.3363 24.12C87.2029 24.0533 87.0496 23.8933 86.8763 23.64C86.7163 23.3733 86.6096 23.1533 86.5563 22.98C86.5163 22.82 86.4963 22.6733 86.4963 22.54C86.4963 22.1933 86.6096 21.9267 86.8363 21.74C87.0629 21.54 87.3496 21.4 87.6963 21.32C88.0429 21.2267 88.3963 21.1733 88.7563 21.16C89.1296 21.1333 89.4563 21.12 89.7363 21.12C90.1629 21.12 90.6696 21.12 91.2563 21.12C91.8429 21.1067 92.3829 21.1 92.8763 21.1C92.9963 21.1 93.1296 21.1 93.2763 21.1C93.4229 21.0867 93.5763 21.08 93.7363 21.08C94.0963 21.08 94.4696 21.1 94.8563 21.14C95.2429 21.18 95.5963 21.2667 95.9163 21.4C96.2363 21.5333 96.4829 21.74 96.6563 22.02C96.8829 22.3933 96.9963 22.82 96.9963 23.3C96.9963 24.0333 96.8029 24.6467 96.4163 25.14C96.2829 25.3133 96.1363 25.48 95.9763 25.64C95.8163 25.8 95.6296 25.9533 95.4163 26.1C95.0696 26.34 94.6563 26.5467 94.1763 26.72C93.6963 26.88 93.1963 27 92.6763 27.08C92.1696 27.16 91.7029 27.2133 91.2763 27.24C91.4496 27.6133 91.7096 28.1133 92.0563 28.74C92.4163 29.3667 92.8496 29.9933 93.3563 30.62C93.6229 30.9533 93.8963 31.1867 94.1763 31.32C94.4563 31.4533 94.7296 31.52 94.9963 31.52C95.4229 31.52 95.8229 31.3933 96.1963 31.14C96.5829 30.8867 96.9296 30.5933 97.2363 30.26C97.5563 29.9133 97.8096 29.6133 97.9963 29.36C98.0363 29.2933 98.0696 29.26 98.0963 29.26C98.1363 29.26 98.1563 29.3 98.1563 29.38C98.1563 29.4867 98.1163 29.5933 98.0363 29.7C97.4229 30.54 96.8363 31.2133 96.2763 31.72C95.7163 32.2133 95.1563 32.46 94.5963 32.46ZM98.9875 32.06C98.8542 32.06 98.7408 32.0333 98.6475 31.98C98.5542 31.9267 98.5075 31.8267 98.5075 31.68C98.5075 31.4933 98.5542 31.2733 98.6475 31.02C98.7542 30.7667 98.8675 30.5133 98.9875 30.26C99.1075 30.0067 99.2075 29.8 99.2875 29.64C99.4475 29.3333 99.6008 29.0267 99.7475 28.72C99.8942 28.4133 100.021 28.1533 100.127 27.94C100.234 27.74 100.288 27.6067 100.288 27.54C100.288 27.4333 100.208 27.4333 100.048 27.54C99.9008 27.6467 99.7608 27.7533 99.6275 27.86C99.3342 28.14 99.0275 28.4733 98.7075 28.86C98.3875 29.2333 98.1408 29.5333 97.9675 29.76C97.9275 29.8133 97.8942 29.84 97.8675 29.84C97.8408 29.84 97.8275 29.8067 97.8275 29.74C97.8275 29.6333 97.8608 29.5333 97.9275 29.44C98.1142 29.1733 98.3342 28.88 98.5875 28.56C98.8408 28.24 99.1008 27.9333 99.3675 27.64C99.6208 27.3733 99.8808 27.1133 100.148 26.86C100.414 26.6067 100.754 26.48 101.168 26.48C101.448 26.48 101.588 26.5867 101.588 26.8C101.588 26.9867 101.508 27.2 101.348 27.44C101.254 27.5867 101.108 27.8333 100.908 28.18C100.708 28.5267 100.501 28.9067 100.288 29.32C100.088 29.72 99.9142 30.0933 99.7675 30.44C99.6208 30.7867 99.5475 31.04 99.5475 31.2C99.5475 31.3867 99.6408 31.48 99.8275 31.48C99.9742 31.48 100.154 31.4067 100.368 31.26C100.581 31.1 100.801 30.9133 101.028 30.7C101.441 30.3 101.814 29.8667 102.148 29.4C102.494 28.92 102.788 28.46 103.028 28.02C103.281 27.58 103.481 27.22 103.628 26.94C103.654 26.8867 103.681 26.8267 103.708 26.76C103.748 26.68 103.808 26.6333 103.888 26.62C103.968 26.6067 104.141 26.6 104.408 26.6C104.674 26.6 104.921 26.5467 105.148 26.44H105.188C105.228 26.44 105.248 26.46 105.248 26.5C105.248 26.6067 105.161 26.6867 104.988 26.74C104.828 26.7933 104.641 26.9533 104.428 27.22C104.228 27.4867 104.028 27.8133 103.828 28.2C103.628 28.5733 103.448 28.96 103.288 29.36C103.128 29.76 103.008 30.1267 102.928 30.46C102.848 30.7933 102.828 31.04 102.868 31.2C102.921 31.3867 103.014 31.48 103.148 31.48C103.321 31.48 103.561 31.3733 103.868 31.16C104.188 30.9467 104.514 30.6933 104.848 30.4C105.181 30.0933 105.454 29.8133 105.668 29.56C105.761 29.4533 105.848 29.3467 105.928 29.24C106.008 29.1333 106.061 29.0667 106.088 29.04C106.101 29.0533 106.114 29.08 106.128 29.12C106.141 29.1467 106.148 29.1733 106.148 29.2C106.134 29.2933 106.101 29.3867 106.048 29.48C105.994 29.56 105.934 29.6333 105.868 29.7C105.614 30.0333 105.308 30.3867 104.948 30.76C104.601 31.12 104.221 31.4267 103.808 31.68C103.408 31.9333 102.994 32.06 102.568 32.06C102.434 32.06 102.281 32.0267 102.108 31.96C101.948 31.8933 101.868 31.7467 101.868 31.52C101.868 31.3467 101.914 31.1133 102.008 30.82C102.101 30.5133 102.201 30.2133 102.308 29.92C102.428 29.6133 102.528 29.3867 102.608 29.24C102.434 29.4933 102.221 29.78 101.968 30.1C101.728 30.4067 101.481 30.68 101.228 30.92C100.894 31.24 100.534 31.5133 100.148 31.74C99.7742 31.9533 99.3875 32.06 98.9875 32.06ZM107.039 32.04C106.639 32.04 106.366 31.9467 106.219 31.76C106.072 31.56 105.999 31.32 105.999 31.04C105.999 30.6667 106.079 30.2667 106.239 29.84C106.412 29.4133 106.552 29.08 106.659 28.84C106.486 29.0267 106.319 29.2067 106.159 29.38C105.999 29.5533 105.886 29.68 105.819 29.76C105.779 29.8133 105.746 29.84 105.719 29.84C105.692 29.84 105.679 29.8067 105.679 29.74C105.679 29.6333 105.712 29.5333 105.779 29.44C105.966 29.2 106.179 28.9467 106.419 28.68C106.659 28.4133 106.892 28.1333 107.119 27.84C107.386 27.3467 107.679 26.7733 107.999 26.12C108.332 25.4533 108.672 24.7733 109.019 24.08C109.379 23.3733 109.726 22.7267 110.059 22.14C110.406 21.54 110.712 21.06 110.979 20.7C111.206 20.6067 111.419 20.4867 111.619 20.34C111.832 20.1933 112.039 20.06 112.239 19.94C112.452 19.8067 112.672 19.74 112.899 19.74C113.046 19.74 113.152 19.78 113.219 19.86C113.299 19.94 113.352 20.0333 113.379 20.14C113.392 20.18 113.399 20.2533 113.399 20.36C113.399 20.6667 113.292 21.04 113.079 21.48C112.879 21.92 112.639 22.3533 112.359 22.78C112.092 23.1933 111.859 23.5333 111.659 23.8C111.126 24.5467 110.579 25.2267 110.019 25.84C109.459 26.44 108.952 26.9467 108.499 27.36C108.059 27.76 107.739 28.0533 107.539 28.24C107.446 28.4133 107.332 28.6467 107.199 28.94C107.079 29.22 106.972 29.52 106.879 29.84C106.786 30.1467 106.739 30.4333 106.739 30.7C106.739 30.9267 106.792 31.12 106.899 31.28C107.006 31.4267 107.186 31.5 107.439 31.5C107.479 31.5 107.519 31.5 107.559 31.5C107.599 31.5 107.646 31.4933 107.699 31.48C107.926 31.44 108.172 31.3133 108.439 31.1C108.706 30.8867 108.972 30.64 109.239 30.36C109.506 30.08 109.746 29.8133 109.959 29.56C110.052 29.4533 110.139 29.3533 110.219 29.26C110.299 29.1533 110.352 29.08 110.379 29.04C110.472 29.1333 110.466 29.2533 110.359 29.4C110.266 29.5333 110.186 29.6467 110.119 29.74C110.026 29.86 109.892 30.0267 109.719 30.24C109.546 30.44 109.346 30.66 109.119 30.9C108.866 31.1533 108.552 31.4067 108.179 31.66C107.806 31.9133 107.426 32.04 107.039 32.04ZM107.879 27.44C108.292 27.0933 108.812 26.6 109.439 25.96C110.079 25.3067 110.706 24.52 111.319 23.6C111.386 23.4933 111.492 23.3133 111.639 23.06C111.799 22.8067 111.959 22.52 112.119 22.2C112.292 21.8667 112.439 21.5467 112.559 21.24C112.679 20.92 112.739 20.6467 112.739 20.42C112.739 20.2067 112.679 20.1 112.559 20.1C112.412 20.1 112.219 20.2267 111.979 20.48C111.699 20.7733 111.379 21.2067 111.019 21.78C110.672 22.34 110.306 22.9667 109.919 23.66C109.532 24.3533 109.159 25.0333 108.799 25.7C108.452 26.3667 108.146 26.9467 107.879 27.44ZM111.136 32.16C110.59 32.16 110.21 32.0533 109.996 31.84C109.783 31.6267 109.676 31.3667 109.676 31.06C109.676 30.6733 109.776 30.26 109.976 29.82C110.19 29.38 110.39 29.0067 110.576 28.7C110.79 28.38 111.076 28.0467 111.436 27.7C111.796 27.3533 112.19 27.06 112.616 26.82C113.043 26.58 113.456 26.46 113.856 26.46C114.203 26.46 114.443 26.5467 114.576 26.72C114.71 26.88 114.776 27.0733 114.776 27.3C114.776 27.7133 114.65 28.0533 114.396 28.32C114.156 28.5867 113.856 28.8067 113.496 28.98C113.136 29.14 112.79 29.2733 112.456 29.38C112.256 29.4333 112.023 29.4867 111.756 29.54C111.49 29.5933 111.236 29.62 110.996 29.62C110.903 29.86 110.83 30.0933 110.776 30.32C110.723 30.5467 110.696 30.7533 110.696 30.94C110.696 31.1667 110.75 31.3533 110.856 31.5C110.976 31.6467 111.17 31.72 111.436 31.72C111.543 31.72 111.67 31.7067 111.816 31.68C111.963 31.6533 112.123 31.6133 112.296 31.56C112.696 31.4267 113.09 31.2133 113.476 30.92C113.863 30.6267 114.216 30.3133 114.536 29.98C114.87 29.6333 115.123 29.3467 115.296 29.12C115.336 29.16 115.356 29.2067 115.356 29.26C115.356 29.3267 115.31 29.4333 115.216 29.58C114.95 29.9533 114.603 30.34 114.176 30.74C113.75 31.14 113.276 31.48 112.756 31.76C112.236 32.0267 111.696 32.16 111.136 32.16ZM111.156 29.22C111.33 29.2333 111.523 29.2333 111.736 29.22C111.963 29.1933 112.183 29.1467 112.396 29.08C112.943 28.92 113.336 28.6667 113.576 28.32C113.83 27.96 113.956 27.64 113.956 27.36C113.956 27.2 113.923 27.0667 113.856 26.96C113.79 26.8533 113.683 26.8 113.536 26.8C113.15 26.8 112.803 26.9467 112.496 27.24C112.19 27.52 111.923 27.8467 111.696 28.22C111.47 28.5933 111.29 28.9267 111.156 29.22ZM116.177 32.32C115.937 32.32 115.684 32.2867 115.417 32.22C115.15 32.1533 114.91 32.0467 114.697 31.9C114.497 31.74 114.364 31.5267 114.297 31.26C114.284 31.22 114.277 31.16 114.277 31.08C114.277 30.8933 114.317 30.6867 114.397 30.46C114.49 30.2333 114.604 30.0733 114.737 29.98C114.79 29.9533 114.83 29.9533 114.857 29.98C114.897 30.0067 114.904 30.0333 114.877 30.06C114.864 30.1 114.844 30.1533 114.817 30.22C114.79 30.2733 114.77 30.3333 114.757 30.4C114.717 30.7467 114.79 31.0533 114.977 31.32C115.057 31.4267 115.15 31.5267 115.257 31.62C115.377 31.7133 115.49 31.7933 115.597 31.86C115.69 31.9133 115.804 31.9533 115.937 31.98C116.07 31.9933 116.204 32 116.337 32C116.55 32 116.757 31.9733 116.957 31.92C117.157 31.8667 117.304 31.78 117.397 31.66C117.57 31.4467 117.657 31.2067 117.657 30.94C117.657 30.74 117.604 30.5267 117.497 30.3C117.39 30.0733 117.224 29.8333 116.997 29.58C116.85 29.42 116.71 29.2467 116.577 29.06C116.444 28.8733 116.357 28.6733 116.317 28.46C116.304 28.42 116.29 28.38 116.277 28.34C116.277 28.3 116.277 28.26 116.277 28.22C116.104 28.4733 115.924 28.7133 115.737 28.94C115.564 29.1533 115.41 29.34 115.277 29.5C115.224 29.58 115.177 29.62 115.137 29.62C115.11 29.62 115.097 29.5933 115.097 29.54C115.097 29.42 115.15 29.2933 115.257 29.16C115.364 29.04 115.484 28.8933 115.617 28.72C115.75 28.5333 115.857 28.3867 115.937 28.28C116.164 27.9467 116.33 27.6867 116.437 27.5C116.557 27.3 116.684 27.12 116.817 26.96C116.964 26.7867 117.144 26.6467 117.357 26.54C117.584 26.4333 117.817 26.38 118.057 26.38C118.337 26.38 118.59 26.4267 118.817 26.52C119.057 26.6 119.184 26.8133 119.197 27.16C119.197 27.32 119.164 27.4867 119.097 27.66C119.044 27.82 118.984 27.9733 118.917 28.12C118.877 28.2 118.817 28.26 118.737 28.3C118.67 28.3267 118.637 28.3133 118.637 28.26C118.637 28.2067 118.644 28.1467 118.657 28.08C118.67 28.0133 118.677 27.9533 118.677 27.9C118.677 27.6733 118.637 27.4733 118.557 27.3C118.49 27.1133 118.39 26.98 118.257 26.9C118.124 26.8067 117.984 26.76 117.837 26.76C117.624 26.76 117.417 26.8467 117.217 27.02C117.017 27.18 116.917 27.3933 116.917 27.66C116.917 27.6867 116.917 27.72 116.917 27.76C116.917 27.8 116.924 27.8333 116.937 27.86C116.99 28.0733 117.15 28.3133 117.417 28.58C117.684 28.8467 117.89 29.08 118.037 29.28C118.29 29.6267 118.417 29.98 118.417 30.34C118.417 30.7 118.31 31.0333 118.097 31.34C117.897 31.6333 117.624 31.8667 117.277 32.04C116.944 32.2267 116.577 32.32 116.177 32.32Z" fill="white"/>
<defs>
<linearGradient id="paint0_linear_41_15" x1="69.5" y1="0" x2="69.5" y2="57" gradientUnits="userSpaceOnUse">
<stop stop-color="#D5D5D5"/>
<stop offset="1" stop-color="#868686"/>
</linearGradient>
<linearGradient id="paint1_linear_41_15" x1="69.5" y1="0" x2="69.5" y2="57" gradientUnits="userSpaceOnUse">
<stop stop-color="#D5D5D5"/>
<stop offset="1" stop-color="#868686"/>
</linearGradient>
</defs>
</svg>
