<svg width="55" height="57" viewBox="0 0 55 57" fill="none" xmlns="http://www.w3.org/2000/svg">
<rect x="1" y="1" width="53" height="55" rx="20" fill="#859494"/>
<rect x="1" y="1" width="53" height="55" rx="20" stroke="url(#paint0_linear_41_11)" stroke-width="2"/>
<rect x="1" y="1" width="53" height="55" rx="20" stroke="url(#paint1_linear_41_11)" stroke-width="2"/>
<path d="M12.368 47.24C12.12 47.24 11.884 47.168 11.66 47.024C11.436 46.88 11.268 46.668 11.156 46.388C11.116 46.284 11.088 46.172 11.072 46.052C11.064 45.932 11.06 45.816 11.06 45.704V45.548C11.06 45.492 11.064 45.44 11.072 45.392C11.088 45.344 11.12 45.32 11.168 45.32C11.184 45.32 11.192 45.328 11.192 45.344C11.192 45.392 11.188 45.44 11.18 45.488C11.18 45.536 11.18 45.584 11.18 45.632C11.18 46.008 11.272 46.292 11.456 46.484C11.648 46.676 11.884 46.772 12.164 46.772C12.444 46.772 12.716 46.692 12.98 46.532C13.244 46.372 13.488 46.168 13.712 45.92C13.896 45.72 14.076 45.46 14.252 45.14C14.436 44.82 14.624 44.476 14.816 44.108C14.56 44.116 14.292 44.128 14.012 44.144C13.732 44.152 13.476 44.176 13.244 44.216C13.172 44.224 13.152 44.204 13.184 44.156C13.216 44.108 13.276 44.048 13.364 43.976C13.452 43.904 13.544 43.84 13.64 43.784C13.744 43.728 13.828 43.696 13.892 43.688C14.028 43.696 14.196 43.704 14.396 43.712C14.604 43.712 14.808 43.716 15.008 43.724C15.184 43.404 15.352 43.08 15.512 42.752C15.68 42.416 15.836 42.104 15.98 41.816C16.06 41.656 16.164 41.496 16.292 41.336C16.428 41.168 16.576 41.02 16.736 40.892C16.904 40.764 17.076 40.684 17.252 40.652C16.828 40.668 16.388 40.68 15.932 40.688C15.484 40.696 15.056 40.756 14.648 40.868C14.464 40.916 14.3 40.98 14.156 41.06C14.012 41.14 13.908 41.24 13.844 41.36C13.78 41.48 13.748 41.612 13.748 41.756C13.748 41.956 13.804 42.1 13.916 42.188C13.924 42.196 13.928 42.204 13.928 42.212C13.928 42.228 13.912 42.244 13.88 42.26C13.856 42.276 13.832 42.28 13.808 42.272C13.736 42.232 13.648 42.136 13.544 41.984C13.44 41.824 13.376 41.692 13.352 41.588C13.328 41.492 13.316 41.404 13.316 41.324C13.316 41.116 13.384 40.956 13.52 40.844C13.656 40.724 13.828 40.64 14.036 40.592C14.244 40.536 14.456 40.504 14.672 40.496C14.888 40.48 15.08 40.472 15.248 40.472H16.58C16.884 40.472 17.148 40.472 17.372 40.472C17.596 40.464 17.776 40.448 17.912 40.424C17.928 40.424 17.94 40.424 17.948 40.424C17.956 40.416 17.964 40.412 17.972 40.412C18.02 40.412 18.044 40.428 18.044 40.46C18.044 40.492 18.028 40.524 17.996 40.556C17.972 40.58 17.952 40.592 17.936 40.592C17.688 40.616 17.456 40.724 17.24 40.916C17.024 41.108 16.828 41.356 16.652 41.66C16.604 41.748 16.516 41.912 16.388 42.152C16.26 42.392 16.12 42.656 15.968 42.944C15.816 43.232 15.676 43.5 15.548 43.748C15.7 43.756 15.824 43.764 15.92 43.772C16.024 43.772 16.084 43.772 16.1 43.772H17.864C17.936 43.772 18.068 43.76 18.26 43.736C18.46 43.712 18.612 43.676 18.716 43.628C18.932 43.212 19.152 42.8 19.376 42.392C19.6 41.984 19.808 41.62 20 41.3C20.2 40.972 20.356 40.736 20.468 40.592C20.604 40.536 20.756 40.468 20.924 40.388C21.1 40.308 21.272 40.236 21.44 40.172C21.616 40.108 21.772 40.076 21.908 40.076C21.948 40.076 21.988 40.088 22.028 40.112C22.076 40.136 22.1 40.16 22.1 40.184C22.1 40.224 22.02 40.244 21.86 40.244C21.78 40.244 21.696 40.26 21.608 40.292C21.52 40.316 21.408 40.4 21.272 40.544C21.16 40.656 21.012 40.848 20.828 41.12C20.652 41.384 20.46 41.696 20.252 42.056C20.044 42.408 19.832 42.78 19.616 43.172C19.408 43.564 19.212 43.948 19.028 44.324C18.844 44.692 18.688 45.028 18.56 45.332C18.432 45.628 18.348 45.856 18.308 46.016C18.3 46.072 18.288 46.136 18.272 46.208C18.264 46.272 18.26 46.336 18.26 46.4C18.26 46.528 18.292 46.64 18.356 46.736C18.42 46.832 18.54 46.88 18.716 46.88C18.844 46.88 18.972 46.856 19.1 46.808C19.236 46.76 19.356 46.708 19.46 46.652C19.748 46.492 20.008 46.276 20.24 46.004C20.472 45.724 20.66 45.488 20.804 45.296C20.828 45.264 20.844 45.248 20.852 45.248C20.876 45.248 20.888 45.276 20.888 45.332C20.888 45.38 20.876 45.424 20.852 45.464C20.7 45.68 20.5 45.932 20.252 46.22C20.004 46.5 19.716 46.732 19.388 46.916C19.132 47.052 18.84 47.12 18.512 47.12C18.264 47.12 18.048 47.032 17.864 46.856C17.688 46.672 17.6 46.452 17.6 46.196C17.6 46.068 17.624 45.94 17.672 45.812C17.744 45.628 17.86 45.364 18.02 45.02C18.188 44.676 18.376 44.296 18.584 43.88C18.504 43.952 18.412 44.016 18.308 44.072C18.204 44.128 18.104 44.152 18.008 44.144C17.76 44.12 17.476 44.108 17.156 44.108C16.844 44.1 16.44 44.096 15.944 44.096H15.368C15.144 44.552 14.912 45 14.672 45.44C14.432 45.872 14.184 46.228 13.928 46.508C13.728 46.724 13.488 46.9 13.208 47.036C12.928 47.172 12.648 47.24 12.368 47.24ZM23.0184 47.144C22.6984 47.144 22.3784 47.116 22.0584 47.06C21.7384 47.012 21.4464 46.92 21.1824 46.784C20.9264 46.648 20.7184 46.456 20.5584 46.208C20.3984 45.96 20.3184 45.64 20.3184 45.248C20.3184 44.92 20.3824 44.544 20.5104 44.12C20.6464 43.688 20.8464 43.256 21.1104 42.824C21.3744 42.384 21.7024 41.976 22.0944 41.6C22.4944 41.224 22.9544 40.924 23.4744 40.7C24.0024 40.468 24.5944 40.352 25.2504 40.352C26.2104 40.352 26.9104 40.508 27.3504 40.82C27.7904 41.124 28.0104 41.6 28.0104 42.248C28.0104 42.88 27.8784 43.488 27.6144 44.072C27.3584 44.656 26.9984 45.18 26.5344 45.644C26.0784 46.108 25.5504 46.476 24.9504 46.748C24.3504 47.012 23.7064 47.144 23.0184 47.144ZM22.9224 46.964C23.4104 46.964 23.8744 46.872 24.3144 46.688C24.7624 46.496 25.1664 46.24 25.5264 45.92C25.8944 45.592 26.2104 45.22 26.4744 44.804C26.7464 44.388 26.9544 43.952 27.0984 43.496C27.2504 43.04 27.3264 42.588 27.3264 42.14C27.3264 41.644 27.1704 41.252 26.8584 40.964C26.5464 40.676 26.0184 40.532 25.2744 40.532C24.8504 40.532 24.4264 40.64 24.0024 40.856C23.5864 41.064 23.1944 41.344 22.8264 41.696C22.4664 42.048 22.1424 42.436 21.8544 42.86C21.5744 43.284 21.3544 43.712 21.1944 44.144C21.0344 44.576 20.9544 44.98 20.9544 45.356C20.9544 45.86 21.1024 46.256 21.3984 46.544C21.7024 46.824 22.2104 46.964 22.9224 46.964ZM28.7514 47.12C28.5034 47.12 28.2674 47.052 28.0434 46.916C27.8194 46.772 27.6514 46.556 27.5394 46.268C27.4994 46.164 27.4714 46.056 27.4554 45.944C27.4394 45.824 27.4314 45.708 27.4314 45.596C27.4314 45.484 27.4514 45.428 27.4914 45.428C27.5394 45.428 27.5634 45.46 27.5634 45.524C27.5634 45.9 27.6554 46.184 27.8394 46.376C28.0314 46.568 28.2674 46.664 28.5474 46.664C28.8274 46.664 29.0954 46.584 29.3514 46.424C29.6154 46.264 29.8594 46.06 30.0834 45.812C30.4514 45.412 30.7634 45.008 31.0194 44.6C31.2754 44.184 31.5074 43.76 31.7154 43.328C31.9314 42.888 32.1474 42.432 32.3634 41.96C32.4994 41.672 32.6674 41.42 32.8674 41.204C33.0754 40.988 33.3234 40.84 33.6114 40.76L33.6234 40.748H32.9634C32.6834 40.748 32.3874 40.76 32.0754 40.784C31.7634 40.808 31.4794 40.86 31.2234 40.94C30.9754 41.02 30.7954 41.14 30.6834 41.3C30.6114 41.404 30.5754 41.524 30.5754 41.66C30.5754 41.796 30.6114 41.928 30.6834 42.056C30.7554 42.184 30.8474 42.276 30.9594 42.332C30.9754 42.348 30.9834 42.36 30.9834 42.368C30.9834 42.384 30.9634 42.404 30.9234 42.428C30.8914 42.444 30.8554 42.448 30.8154 42.44C30.7514 42.4 30.6714 42.336 30.5754 42.248C30.4794 42.152 30.3914 42.052 30.3114 41.948C30.2394 41.844 30.1914 41.756 30.1674 41.684C30.1354 41.588 30.1194 41.492 30.1194 41.396C30.1194 41.204 30.1874 41.048 30.3234 40.928C30.4674 40.808 30.6514 40.716 30.8754 40.652C31.0994 40.588 31.3394 40.544 31.5954 40.52C31.8594 40.488 32.1114 40.472 32.3514 40.472C32.5994 40.464 32.8114 40.46 32.9874 40.46H34.2834C34.2994 40.46 34.3074 40.464 34.3074 40.472C34.3074 40.496 34.2794 40.532 34.2234 40.58C34.1754 40.62 34.1434 40.64 34.1274 40.64C33.9274 40.68 33.7794 40.788 33.6834 40.964C33.5874 41.132 33.5434 41.404 33.5514 41.78C33.5514 41.78 33.5514 41.868 33.5514 42.044C33.5594 42.22 33.5674 42.448 33.5754 42.728C33.5834 43.008 33.5914 43.308 33.5994 43.628C33.6074 43.948 33.6154 44.256 33.6234 44.552C33.6314 44.848 33.6394 45.096 33.6474 45.296V45.368L37.8114 40.976C38.0754 40.696 38.3354 40.46 38.5914 40.268C38.8554 40.068 39.1274 39.98 39.4074 40.004C39.4154 40.004 39.4194 40.008 39.4194 40.016C39.4274 40.016 39.4314 40.016 39.4314 40.016C39.4314 40.04 39.4154 40.068 39.3834 40.1C39.3514 40.132 39.3154 40.152 39.2754 40.16C39.0674 40.152 38.8794 40.232 38.7114 40.4C38.5434 40.568 38.3874 40.768 38.2434 41C38.1714 41.12 38.0634 41.312 37.9194 41.576C37.7754 41.832 37.6114 42.136 37.4274 42.488C37.2514 42.84 37.0714 43.212 36.8874 43.604C36.7034 43.996 36.5314 44.38 36.3714 44.756C36.2194 45.132 36.0954 45.476 35.9994 45.788C35.9034 46.092 35.8554 46.34 35.8554 46.532C35.8554 46.756 35.9314 46.868 36.0834 46.868C36.1474 46.868 36.2154 46.852 36.2874 46.82C36.3914 46.78 36.5074 46.72 36.6354 46.64C36.7634 46.56 36.8794 46.468 36.9834 46.364C37.1914 46.164 37.3754 45.96 37.5354 45.752C37.6954 45.536 37.7914 45.412 37.8234 45.38C37.8474 45.348 37.8674 45.332 37.8834 45.332C37.9154 45.332 37.9314 45.356 37.9314 45.404C37.9314 45.452 37.9154 45.496 37.8834 45.536C37.8194 45.616 37.7114 45.756 37.5594 45.956C37.4074 46.148 37.2274 46.344 37.0194 46.544C36.8194 46.744 36.6034 46.896 36.3714 47C36.2994 47.032 36.2234 47.056 36.1434 47.072C36.0634 47.096 35.9834 47.108 35.9034 47.108C35.7274 47.108 35.5674 47.056 35.4234 46.952C35.2874 46.84 35.2194 46.656 35.2194 46.4C35.2194 46.152 35.2754 45.872 35.3874 45.56C35.5074 45.24 35.6394 44.932 35.7834 44.636C35.9354 44.332 36.0594 44.076 36.1554 43.868C36.2594 43.652 36.3914 43.376 36.5514 43.04C36.7114 42.704 36.8954 42.364 37.1034 42.02L33.6474 45.668C33.6394 45.732 33.6114 45.796 33.5634 45.86C33.5154 45.916 33.4394 45.964 33.3354 46.004C33.2794 46.028 33.2034 46.092 33.1074 46.196C33.0114 46.3 32.9474 46.372 32.9154 46.412C32.9154 46.42 32.9034 46.424 32.8794 46.424C32.8554 46.424 32.8314 46.416 32.8074 46.4C32.7834 46.384 32.7754 46.372 32.7834 46.364C32.9914 46.1 33.0994 45.736 33.1074 45.272L33.1194 44.984C33.1354 44.648 33.1474 44.296 33.1554 43.928C33.1634 43.552 33.1674 43.204 33.1674 42.884C33.1754 42.556 33.1794 42.292 33.1794 42.092C33.1794 41.884 33.1794 41.78 33.1794 41.78C33.1794 41.588 33.2074 41.42 33.2634 41.276C33.3194 41.132 33.3874 41.008 33.4674 40.904C33.3314 41.008 33.1994 41.132 33.0714 41.276C32.9434 41.42 32.8354 41.58 32.7474 41.756C32.6274 42.004 32.4914 42.324 32.3394 42.716C32.1874 43.108 32.0114 43.524 31.8114 43.964C31.6194 44.404 31.4034 44.836 31.1634 45.26C30.9314 45.676 30.6714 46.036 30.3834 46.34C30.1834 46.556 29.9274 46.74 29.6154 46.892C29.3114 47.044 29.0234 47.12 28.7514 47.12ZM40.1283 47.144C39.8723 47.144 39.6123 47.136 39.3483 47.12C39.0843 47.112 38.8243 47.092 38.5683 47.06C38.0003 47.012 37.7163 46.828 37.7163 46.508C37.7163 46.348 37.7803 46.156 37.9083 45.932C38.2123 45.38 38.5243 44.832 38.8443 44.288C39.1643 43.736 39.4803 43.184 39.7923 42.632C39.8883 42.456 40.0123 42.236 40.1643 41.972C40.3163 41.708 40.4683 41.456 40.6203 41.216C40.6923 41.104 40.7963 40.992 40.9323 40.88C41.0683 40.76 41.2083 40.684 41.3523 40.652C41.1843 40.66 40.9683 40.672 40.7043 40.688C40.4483 40.704 40.1843 40.736 39.9123 40.784C39.6483 40.824 39.4083 40.892 39.1923 40.988C38.9843 41.076 38.8363 41.2 38.7483 41.36C38.7163 41.432 38.6883 41.504 38.6643 41.576C38.6403 41.648 38.6283 41.72 38.6283 41.792C38.6283 41.976 38.6923 42.108 38.8203 42.188C38.8283 42.188 38.8323 42.196 38.8323 42.212C38.8323 42.228 38.8163 42.244 38.7843 42.26C38.7603 42.276 38.7363 42.28 38.7123 42.272C38.6403 42.232 38.5523 42.136 38.4483 41.984C38.3443 41.824 38.2803 41.692 38.2563 41.588C38.2323 41.492 38.2203 41.404 38.2203 41.324C38.2203 41.116 38.2883 40.956 38.4243 40.844C38.5603 40.724 38.7323 40.64 38.9403 40.592C39.1483 40.536 39.3603 40.504 39.5763 40.496C39.7923 40.48 39.9843 40.472 40.1523 40.472C40.5763 40.472 41.0003 40.468 41.4243 40.46C41.8483 40.444 42.2683 40.436 42.6843 40.436C42.8683 40.436 43.0483 40.436 43.2243 40.436C43.4083 40.436 43.5883 40.444 43.7643 40.46C43.9643 40.468 44.1003 40.508 44.1723 40.58C44.2523 40.652 44.2923 40.74 44.2923 40.844C44.2923 40.972 44.2483 41.12 44.1603 41.288C44.0803 41.448 44.0043 41.596 43.9323 41.732C43.9003 41.796 43.8483 41.844 43.7763 41.876C43.7043 41.9 43.6763 41.876 43.6923 41.804C43.7323 41.644 43.7523 41.484 43.7523 41.324C43.7523 41.18 43.7243 41.052 43.6683 40.94C43.6203 40.82 43.5243 40.736 43.3803 40.688C43.2443 40.648 43.0323 40.628 42.7443 40.628C42.6403 40.628 42.5323 40.632 42.4203 40.64C42.3163 40.64 42.2083 40.644 42.0963 40.652C41.7763 40.676 41.5603 40.76 41.4483 40.904C41.1843 41.272 40.9283 41.672 40.6803 42.104C40.4403 42.528 40.2083 42.932 39.9843 43.316C39.9763 43.332 39.9723 43.352 39.9723 43.376C39.9723 43.424 40.0083 43.448 40.0803 43.448C40.3603 43.448 40.6603 43.452 40.9803 43.46C41.3083 43.468 41.5963 43.468 41.8443 43.46C41.9003 43.452 41.9843 43.444 42.0963 43.436C42.2163 43.428 42.3363 43.412 42.4563 43.388C42.5843 43.364 42.6803 43.336 42.7443 43.304C42.7843 43.28 42.8083 43.268 42.8163 43.268C42.8643 43.268 42.8643 43.316 42.8163 43.412C42.7763 43.5 42.7043 43.592 42.6003 43.688C42.5043 43.776 42.3923 43.82 42.2643 43.82C41.8723 43.82 41.5403 43.812 41.2683 43.796C41.0043 43.78 40.7083 43.772 40.3803 43.772C40.3003 43.772 40.2163 43.772 40.1283 43.772C40.0403 43.772 39.9443 43.776 39.8403 43.784C39.7603 43.792 39.7043 43.824 39.6723 43.88C39.5923 44.024 39.5203 44.156 39.4563 44.276C39.4003 44.396 39.3283 44.536 39.2403 44.696C39.1763 44.816 39.0963 44.972 39.0003 45.164C38.9123 45.348 38.8323 45.54 38.7603 45.74C38.6883 45.932 38.6523 46.1 38.6523 46.244C38.6523 46.492 38.7683 46.664 39.0003 46.76C39.2323 46.848 39.5163 46.896 39.8523 46.904C40.3163 46.904 40.7723 46.86 41.2203 46.772C41.6763 46.676 42.1003 46.52 42.4923 46.304C42.8923 46.08 43.2403 45.78 43.5363 45.404C43.5523 45.388 43.5643 45.38 43.5723 45.38C43.5963 45.38 43.6123 45.404 43.6203 45.452C43.6283 45.492 43.6243 45.524 43.6083 45.548C43.3603 45.852 43.1203 46.148 42.8883 46.436C42.6563 46.716 42.4243 46.892 42.1923 46.964C42.0243 47.012 41.7523 47.052 41.3763 47.084C41.0003 47.124 40.5843 47.144 40.1283 47.144Z" fill="white"/>
<path d="M30.5 33.7588C30.5 33.7588 30.5 26.7588 30.5 25.7588C30.5 24.7588 30 24.2588 29 24.2588C28 24.2588 26 24.2588 25 24.2588C24 24.2588 23.5 24.7588 23.5 25.7588C23.5 26.7588 23.5 33.7588 23.5 33.7588M30.5 33.7588H23.5M30.5 33.7588C32.8787 33.7588 34.1917 33.7588 36.281 33.7588C36.4899 33.7588 36.7019 33.7456 36.8995 33.6779C37.3167 33.5349 37.4658 33.3005 37.5 32.7588C37.5 29.3505 37.5 26.8562 37.5 23.8905C37.5 22.4259 39.2827 21.7051 40.3 22.7588V22.7588L28.2168 9.61519C28.0727 9.45844 27.9153 9.31188 27.7312 9.2049C27.2725 8.93834 26.9279 8.92611 26.4468 9.20221C26.2585 9.31022 26.0988 9.46036 25.9527 9.62087L14 22.7588V22.7588C14.861 21.76 16.5 22.3689 16.5 23.6876V32.7588C16.5174 33.5035 16.7254 33.7536 17.5 33.7588H23.5" stroke="white" stroke-width="2" stroke-linejoin="round"/>
<defs>
<linearGradient id="paint0_linear_41_11" x1="27.5" y1="0" x2="27.5" y2="57" gradientUnits="userSpaceOnUse">
<stop stop-color="#D5D5D5"/>
<stop offset="1" stop-color="#868686"/>
</linearGradient>
<linearGradient id="paint1_linear_41_11" x1="27.5" y1="0" x2="27.5" y2="57" gradientUnits="userSpaceOnUse">
<stop stop-color="#D5D5D5"/>
<stop offset="1" stop-color="#868686"/>
</linearGradient>
</defs>
</svg>
